# xmcd
#
# Track frame offsets:
#	150
#	15269
#	30009
#	47405
#	64546
#	77804
#	91908
#	109273
#	127834
#	145992
#	161354
#	176887
#	195029
#	212126
#	228830
#	244016
#	260202
#	272344
#	286086
#	300786
#	316668
#	330888
#
# Disc length: 4580 seconds
#
# Revision: 1
# Processed by: cddbd v1.5.1PL0 Copyright (c) Steve Scherf et al.
# Submitted via: EasyCDDAExtractor 6.2.0.3
#
DISCID=0311e216
DTITLE=Various Artist - 75 Saloon Tunes
DYEAR=2004
DGENRE=Country
TTITLE0=big and rich - Save A Horse Ride A Cowboy
TTITLE1=walker, clay - Jesus Was A Country Boy
TTITLE2=black, clint - Boogie Man
TTITLE3=bentley, dierks - How Am I Doin'
TTITLE4=watson, gene - Coast Of Texas
TTITLE5=canyon, george - Good Day To Ride
TTITLE6=otto, james - Sunday Morning And Saturday Night
TTITLE7=steele, jeffrey - Good Year For The Outlaw   Remix
TTITLE8=alexander, jessie - Honeysuckle Sweet
TTITLE9=landry, john - Drive On
TTITLE10=turner, josh - What It Ain't
TTITLE11=chesney, kenny - I Go Back
TTITLE12=leahy - Coyote Way
TTITLE13=Carpenter, Mary Chapin - What Would You Say To Me
TTITLE14=loveless, patty - I Wanna Believe
TTITLE15=vasser, phil - In A Real Love
TTITLE16=hogan, sean - Centered
TTITLE17=lawson, shannon - Smokin' Grass
TTITLE18=holy, steve - Put Your Best Dress On
TTITLE19=clark, terri - Girls Lie Too
TTITLE20=adkins, trace - Rough And Ready
TTITLE21=tritt, travis - Girl's Gone Wild
EXTD=
EXTT0=
EXTT1=
EXTT2=
EXTT3=
EXTT4=
EXTT5=
EXTT6=
EXTT7=
EXTT8=
EXTT9=
EXTT10=
EXTT11=
EXTT12=
EXTT13=
EXTT14=
EXTT15=
EXTT16=
EXTT17=
EXTT18=
EXTT19=
EXTT20=
EXTT21=
PLAYORDER=
